<svg width="1893" height="1827" viewBox="0 0 1893 1827" fill="none" xmlns="http://www.w3.org/2000/svg">
<rect width="1893" height="1827" fill="#1E1E1E"/>
<rect width="1893" height="1827" rx="374" fill="#D5BAFF"/>
<path d="M782.988 1234.5C742.988 1234.5 711.155 1229.67 687.488 1220C664.155 1210.67 646.822 1196 635.488 1176C624.155 1156 616.488 1130 612.488 1098C610.488 1082.33 608.988 1065.33 607.988 1047C607.322 1028.67 606.988 1008.83 606.988 987.5C606.988 941.167 608.322 898.167 610.988 858.5C613.655 818.833 619.155 783.333 627.488 752C640.488 704.333 662.322 667.167 692.988 640.5C723.655 613.5 768.655 600 827.988 600C878.655 600 927.155 606.667 973.488 620C1020.15 633.333 1062.99 651.5 1101.99 674.5C1141.32 697.167 1175.49 723 1204.49 752C1233.49 781 1255.99 811.5 1271.99 843.5C1287.99 875.5 1295.99 907.167 1295.99 938.5C1295.99 971.833 1286.82 1003.5 1268.49 1033.5C1250.15 1063.17 1224.65 1090.33 1191.99 1115C1159.32 1139.67 1121.32 1161 1077.99 1179C1034.99 1196.67 988.322 1210.33 937.988 1220C887.988 1229.67 836.322 1234.5 782.988 1234.5ZM910.988 968.5C922.322 968.5 932.655 967.333 941.988 965C951.655 962.333 960.155 959 967.488 955C974.822 951 980.988 946.5 985.988 941.5C991.322 936.5 995.322 931.667 997.988 927C1000.65 922 1001.99 917.5 1001.99 913.5C1001.99 908.833 1000.65 903.833 997.988 898.5C995.655 893.167 991.988 888 986.988 883C981.988 878 975.988 873.5 968.988 869.5C961.988 865.5 954.155 862.333 945.488 860C936.822 857.333 927.322 856 916.988 856C909.655 856 903.655 857.667 898.988 861C894.655 864 891.155 869 888.488 876C887.155 880 886.155 884.667 885.488 890C884.822 895 884.488 900.833 884.488 907.5C884.488 914.5 884.655 921 884.988 927C885.655 933 886.488 938.333 887.488 943C891.155 960 898.988 968.5 910.988 968.5Z" fill="white"/>
</svg>
