<svg width="1893" height="1827" viewBox="0 0 1893 1827" fill="none" xmlns="http://www.w3.org/2000/svg">
<rect width="1893" height="1827" fill="#1E1E1E"/>
<rect width="1893" height="1827" rx="374" fill="#D5BAFF"/>
<path d="M933.543 1237.5C896.543 1237.5 861.21 1230.67 827.543 1217C793.876 1203.33 765.376 1181.67 742.043 1152C718.71 1122.33 703.376 1083.33 696.043 1035C694.71 1025.67 693.543 1016 692.543 1006C691.543 996 690.71 985.667 690.043 975C689.376 964 688.876 953 688.543 942C688.21 930.667 688.043 919 688.043 907C688.043 844 695.543 791.667 710.543 750C725.543 708.333 747.043 675.5 775.043 651.5C803.376 627.167 837.376 610 877.043 600C917.043 589.667 961.71 584.5 1011.04 584.5C1036.71 584.5 1060.71 586 1083.04 589C1105.38 591.667 1124.88 596.333 1141.54 603C1158.54 609.333 1171.71 618 1181.04 629C1190.71 640 1195.54 653.667 1195.54 670C1195.54 689.667 1190.04 705.667 1179.04 718C1168.38 730.333 1155.21 738.833 1139.54 743.5C1128.54 746.833 1115.04 749.833 1099.04 752.5C1083.38 754.833 1067.54 756.833 1051.54 758.5C1035.88 759.833 1022.21 760.667 1010.54 761C1003.21 761.333 997.21 762.333 992.543 764C988.21 765.333 984.876 767.333 982.543 770C980.21 772.333 978.543 775.167 977.543 778.5C976.876 781.5 976.543 784.5 976.543 787.5C976.543 791.833 977.376 796.167 979.043 800.5C980.71 804.833 983.543 808.333 987.543 811C991.543 813.667 996.876 815 1003.54 815C1011.54 815 1018.88 814.833 1025.54 814.5C1032.21 814.167 1038.54 813.667 1044.54 813C1050.88 812.333 1057.21 811.833 1063.54 811.5C1070.21 811.167 1077.21 811 1084.54 811C1108.88 811 1127.38 817.833 1140.04 831.5C1153.04 845.167 1159.54 864.167 1159.54 888.5C1159.54 925.5 1150.38 951.167 1132.04 965.5C1114.04 979.833 1093.21 987 1069.54 987C1061.21 987 1053.38 987 1046.04 987C1039.04 987 1032.38 987 1026.04 987C1020.04 986.667 1014.21 986.5 1008.54 986.5C1003.21 986.5 998.21 986.5 993.543 986.5C985.21 986.5 978.21 987.667 972.543 990C967.21 992 963.21 994.667 960.543 998C958.21 1001.33 957.043 1005.17 957.043 1009.5C957.043 1012.17 957.71 1014.67 959.043 1017C960.71 1019.33 963.21 1021.33 966.543 1023C969.876 1024.67 974.21 1026.17 979.543 1027.5C984.876 1028.5 991.21 1029.33 998.543 1030C1006.21 1030.67 1015.21 1031 1025.54 1031C1034.54 1031 1044.21 1031.17 1054.54 1031.5C1064.88 1031.5 1075.04 1031.67 1085.04 1032C1095.38 1032.33 1104.38 1032.5 1112.04 1032.5C1139.71 1032.5 1160.38 1039.67 1174.04 1054C1187.71 1068 1194.54 1087.83 1194.54 1113.5C1194.54 1140.5 1186.21 1162.33 1169.54 1179C1152.88 1195.33 1131.21 1207.67 1104.54 1216C1078.21 1224.67 1049.88 1230.33 1019.54 1233C989.21 1236 960.543 1237.5 933.543 1237.5Z" fill="white"/>
</svg>
