<svg width="1893" height="1827" viewBox="0 0 1893 1827" fill="none" xmlns="http://www.w3.org/2000/svg">
<rect width="1893" height="1827" fill="#1E1E1E"/>
<rect width="1893" height="1827" rx="374" fill="#D5BAFF"/>
<path d="M835.641 1232C815.641 1232 798.141 1228.83 783.141 1222.5C768.141 1216.17 754.974 1207.17 743.641 1195.5C732.641 1183.83 722.807 1170.17 714.141 1154.5C706.807 1141.5 700.307 1127.5 694.641 1112.5C689.307 1097.17 684.641 1081.17 680.641 1064.5C676.641 1047.5 673.307 1030.17 670.641 1012.5C667.974 994.5 665.974 976.5 664.641 958.5C663.641 940.5 663.141 922.667 663.141 905C663.141 867 666.807 832.167 674.141 800.5C681.474 768.833 692.307 740.5 706.641 715.5C720.974 690.5 738.807 669 760.141 651C786.474 629 817.641 612.167 853.641 600.5C889.641 588.5 930.307 582.5 975.641 582.5C1004.97 582.5 1035.14 585.667 1066.14 592C1097.47 598.333 1126.47 607.5 1153.14 619.5C1179.81 631.5 1201.31 646 1217.64 663C1234.31 680 1242.64 699.333 1242.64 721C1242.64 740.333 1238.47 755.333 1230.14 766C1222.14 776.667 1210.64 784.5 1195.64 789.5C1181.97 793.833 1165.64 796.667 1146.64 798C1127.64 799 1106.31 799.5 1082.64 799.5C1058.31 799.5 1039.31 802.5 1025.64 808.5C1012.31 814.5 1002.64 822.167 996.641 831.5C995.307 833.5 993.974 836 992.641 839C991.641 842 990.807 845 990.141 848C989.474 851 989.141 853.667 989.141 856C989.141 860.333 989.974 864.333 991.641 868C993.641 871.333 996.307 874.333 999.641 877C1003.31 879.333 1007.47 881.167 1012.14 882.5C1017.14 883.833 1022.47 884.5 1028.14 884.5C1039.81 884.5 1051.14 884.667 1062.14 885C1073.14 885 1083.31 885.333 1092.64 886C1102.31 886.667 1110.64 887.833 1117.64 889.5C1124.97 890.833 1130.81 892.667 1135.14 895C1142.81 899.333 1148.47 906 1152.14 915C1156.14 923.667 1158.14 934 1158.14 946C1158.14 954.667 1156.97 963.333 1154.64 972C1152.31 980.667 1148.47 989 1143.14 997C1134.81 1009.67 1124.81 1019.83 1113.14 1027.5C1101.47 1034.83 1086.47 1040.67 1068.14 1045C1049.81 1049.33 1026.47 1053.33 998.141 1057C979.141 1059.33 966.641 1066 960.641 1077C954.641 1088 951.641 1101.83 951.641 1118.5C951.641 1123.83 951.307 1129.17 950.641 1134.5C950.307 1139.5 949.641 1144.33 948.641 1149C947.974 1153.33 946.974 1157.67 945.641 1162C944.307 1166 942.807 1170 941.141 1174C939.474 1177.67 937.641 1181.17 935.641 1184.5C925.641 1201.5 911.641 1213.67 893.641 1221C875.974 1228.33 856.641 1232 835.641 1232Z" fill="white"/>
</svg>
