<svg width="5340" height="1813" viewBox="0 0 5340 1813" fill="none" xmlns="http://www.w3.org/2000/svg">
<rect width="5340" height="1813" rx="374" fill="#D5BAFF"/>
<path d="M1529.84 1186C1509.84 1186 1492.34 1182.83 1477.34 1176.5C1462.34 1170.17 1449.18 1161.17 1437.84 1149.5C1426.84 1137.83 1417.01 1124.17 1408.34 1108.5C1401.01 1095.5 1394.51 1081.5 1388.84 1066.5C1383.51 1051.17 1378.84 1035.17 1374.84 1018.5C1370.84 1001.5 1367.51 984.167 1364.84 966.5C1362.18 948.5 1360.18 930.5 1358.84 912.5C1357.84 894.5 1357.34 876.667 1357.34 859C1357.34 821 1361.01 786.167 1368.34 754.5C1375.68 722.833 1386.51 694.5 1400.84 669.5C1415.18 644.5 1433.01 623 1454.34 605C1480.68 583 1511.84 566.167 1547.84 554.5C1583.84 542.5 1624.51 536.5 1669.84 536.5C1699.18 536.5 1729.34 539.667 1760.34 546C1791.68 552.333 1820.68 561.5 1847.34 573.5C1874.01 585.5 1895.51 600 1911.84 617C1928.51 634 1936.84 653.333 1936.84 675C1936.84 694.333 1932.68 709.333 1924.34 720C1916.34 730.667 1904.84 738.5 1889.84 743.5C1876.18 747.833 1859.84 750.667 1840.84 752C1821.84 753 1800.51 753.5 1776.84 753.5C1752.51 753.5 1733.51 756.5 1719.84 762.5C1706.51 768.5 1696.84 776.167 1690.84 785.5C1689.51 787.5 1688.18 790 1686.84 793C1685.84 796 1685.01 799 1684.34 802C1683.68 805 1683.34 807.667 1683.34 810C1683.34 814.333 1684.18 818.333 1685.84 822C1687.84 825.333 1690.51 828.333 1693.84 831C1697.51 833.333 1701.68 835.167 1706.34 836.5C1711.34 837.833 1716.68 838.5 1722.34 838.5C1734.01 838.5 1745.34 838.667 1756.34 839C1767.34 839 1777.51 839.333 1786.84 840C1796.51 840.667 1804.84 841.833 1811.84 843.5C1819.18 844.833 1825.01 846.667 1829.34 849C1837.01 853.333 1842.68 860 1846.34 869C1850.34 877.667 1852.34 888 1852.34 900C1852.34 908.667 1851.18 917.333 1848.84 926C1846.51 934.667 1842.68 943 1837.34 951C1829.01 963.667 1819.01 973.833 1807.34 981.5C1795.68 988.833 1780.68 994.667 1762.34 999C1744.01 1003.33 1720.68 1007.33 1692.34 1011C1673.34 1013.33 1660.84 1020 1654.84 1031C1648.84 1042 1645.84 1055.83 1645.84 1072.5C1645.84 1077.83 1645.51 1083.17 1644.84 1088.5C1644.51 1093.5 1643.84 1098.33 1642.84 1103C1642.18 1107.33 1641.18 1111.67 1639.84 1116C1638.51 1120 1637.01 1124 1635.34 1128C1633.68 1131.67 1631.84 1135.17 1629.84 1138.5C1619.84 1155.5 1605.84 1167.67 1587.84 1175C1570.18 1182.33 1550.84 1186 1529.84 1186ZM2159.06 1191C2122.73 1191 2091.56 1184 2065.56 1170C2039.9 1156 2020.06 1136.33 2006.06 1111C2001.06 1101.67 1996.73 1090.83 1993.06 1078.5C1989.4 1066.17 1986.4 1052.83 1984.06 1038.5C1981.73 1023.83 1979.9 1009 1978.56 994C1977.23 978.667 1976.23 963.5 1975.56 948.5C1975.23 933.5 1975.06 919.333 1975.06 906C1975.06 848.667 1981.06 799.667 1993.06 759C2005.06 718.333 2022.06 684.667 2044.06 658C2066.06 631.333 2092.23 610.5 2122.56 595.5C2153.23 580.167 2187.06 569.333 2224.06 563C2261.4 556.667 2300.9 553.5 2342.56 553.5C2378.56 553.5 2413.9 558 2448.56 567C2483.56 576 2515.23 589.333 2543.56 607C2572.23 624.333 2595.06 645.5 2612.06 670.5C2629.06 695.5 2637.56 724 2637.56 756C2637.56 779 2634.9 798 2629.56 813C2624.23 827.667 2616.9 839.667 2607.56 849C2598.56 858 2588.4 865.167 2577.06 870.5C2565.73 875.5 2553.9 879.833 2541.56 883.5C2534.56 885.5 2528.23 888.333 2522.56 892C2517.23 895.667 2514.56 900.333 2514.56 906C2514.56 910 2519.23 916.333 2528.56 925C2538.23 933.667 2549.9 943.667 2563.56 955C2577.23 966.333 2590.73 978 2604.06 990C2617.4 1001.67 2627.9 1012.5 2635.56 1022.5C2638.9 1026.83 2641.9 1031.17 2644.56 1035.5C2647.23 1039.83 2649.56 1044.17 2651.56 1048.5C2653.56 1052.83 2655.23 1057.17 2656.56 1061.5C2657.9 1065.5 2658.9 1069.67 2659.56 1074C2660.23 1078.33 2660.56 1082.5 2660.56 1086.5C2660.56 1107.5 2653.73 1125.33 2640.06 1140C2626.4 1154.33 2608.73 1165.17 2587.06 1172.5C2565.73 1179.83 2543.23 1183.5 2519.56 1183.5C2500.9 1183.5 2483.56 1181.33 2467.56 1177C2451.9 1173 2437.56 1167 2424.56 1159C2411.56 1150.67 2399.73 1140.33 2389.06 1128C2378.4 1115.33 2368.73 1100.67 2360.06 1084C2352.06 1068.33 2343.9 1054 2335.56 1041C2327.23 1027.67 2319.56 1017 2312.56 1009C2305.56 1000.67 2300.23 996.5 2296.56 996.5C2294.9 996.5 2293.56 997.167 2292.56 998.5C2291.56 999.833 2290.9 1001.83 2290.56 1004.5C2290.23 1007.17 2289.9 1010.33 2289.56 1014C2289.56 1017.33 2289.56 1021.17 2289.56 1025.5C2289.56 1030.17 2289.56 1035.67 2289.56 1042C2289.56 1048 2289.4 1054.33 2289.06 1061C2289.06 1067.67 2288.73 1074.33 2288.06 1081C2287.73 1087.67 2287.23 1094.17 2286.56 1100.5C2285.9 1106.83 2284.9 1112.5 2283.56 1117.5C2276.9 1146.17 2261.56 1165.5 2237.56 1175.5C2213.9 1185.83 2187.73 1191 2159.06 1191ZM2325.56 811.5C2330.9 811.5 2336.06 810.833 2341.06 809.5C2346.4 807.833 2351.23 805.5 2355.56 802.5C2360.23 799.167 2364.23 795.333 2367.56 791C2370.9 786.333 2373.4 780.833 2375.06 774.5C2377.06 768.167 2378.06 761.167 2378.06 753.5C2378.06 746.5 2376.56 740.167 2373.56 734.5C2370.9 728.833 2367.06 724.167 2362.06 720.5C2357.06 716.5 2351.4 713.5 2345.06 711.5C2338.73 709.5 2332.06 708.5 2325.06 708.5C2316.4 708.5 2309.4 709.667 2304.06 712C2298.73 714.333 2294.4 717.5 2291.06 721.5C2287.73 725.167 2284.9 729.333 2282.56 734C2280.56 738 2278.73 742.333 2277.06 747C2275.73 751.667 2274.73 756.833 2274.06 762.5C2273.4 768.167 2273.06 775 2273.06 783C2273.06 789 2275.56 794.167 2280.56 798.5C2285.56 802.833 2292.06 806.167 2300.06 808.5C2308.4 810.5 2316.9 811.5 2325.56 811.5ZM2962.22 1191.5C2925.22 1191.5 2889.89 1184.67 2856.22 1171C2822.55 1157.33 2794.05 1135.67 2770.72 1106C2747.39 1076.33 2732.05 1037.33 2724.72 989C2723.39 979.667 2722.22 970 2721.22 960C2720.22 950 2719.39 939.667 2718.72 929C2718.05 918 2717.55 907 2717.22 896C2716.89 884.667 2716.72 873 2716.72 861C2716.72 798 2724.22 745.667 2739.22 704C2754.22 662.333 2775.72 629.5 2803.72 605.5C2832.05 581.167 2866.05 564 2905.72 554C2945.72 543.667 2990.39 538.5 3039.72 538.5C3065.39 538.5 3089.39 540 3111.72 543C3134.05 545.667 3153.55 550.333 3170.22 557C3187.22 563.333 3200.39 572 3209.72 583C3219.39 594 3224.22 607.667 3224.22 624C3224.22 643.667 3218.72 659.667 3207.72 672C3197.05 684.333 3183.89 692.833 3168.22 697.5C3157.22 700.833 3143.72 703.833 3127.72 706.5C3112.05 708.833 3096.22 710.833 3080.22 712.5C3064.55 713.833 3050.89 714.667 3039.22 715C3031.89 715.333 3025.89 716.333 3021.22 718C3016.89 719.333 3013.55 721.333 3011.22 724C3008.89 726.333 3007.22 729.167 3006.22 732.5C3005.55 735.5 3005.22 738.5 3005.22 741.5C3005.22 745.833 3006.05 750.167 3007.72 754.5C3009.39 758.833 3012.22 762.333 3016.22 765C3020.22 767.667 3025.55 769 3032.22 769C3040.22 769 3047.55 768.833 3054.22 768.5C3060.89 768.167 3067.22 767.667 3073.22 767C3079.55 766.333 3085.89 765.833 3092.22 765.5C3098.89 765.167 3105.89 765 3113.22 765C3137.55 765 3156.05 771.833 3168.72 785.5C3181.72 799.167 3188.22 818.167 3188.22 842.5C3188.22 879.5 3179.05 905.167 3160.72 919.5C3142.72 933.833 3121.89 941 3098.22 941C3089.89 941 3082.05 941 3074.72 941C3067.72 941 3061.05 941 3054.72 941C3048.72 940.667 3042.89 940.5 3037.22 940.5C3031.89 940.5 3026.89 940.5 3022.22 940.5C3013.89 940.5 3006.89 941.667 3001.22 944C2995.89 946 2991.89 948.667 2989.22 952C2986.89 955.333 2985.72 959.167 2985.72 963.5C2985.72 966.167 2986.39 968.667 2987.72 971C2989.39 973.333 2991.89 975.333 2995.22 977C2998.55 978.667 3002.89 980.167 3008.22 981.5C3013.55 982.5 3019.89 983.333 3027.22 984C3034.89 984.667 3043.89 985 3054.22 985C3063.22 985 3072.89 985.167 3083.22 985.5C3093.55 985.5 3103.72 985.667 3113.72 986C3124.05 986.333 3133.05 986.5 3140.72 986.5C3168.39 986.5 3189.05 993.667 3202.72 1008C3216.39 1022 3223.22 1041.83 3223.22 1067.5C3223.22 1094.5 3214.89 1116.33 3198.22 1133C3181.55 1149.33 3159.89 1161.67 3133.22 1170C3106.89 1178.67 3078.55 1184.33 3048.22 1187C3017.89 1190 2989.22 1191.5 2962.22 1191.5ZM3479.63 1188.5C3439.63 1188.5 3407.8 1183.67 3384.13 1174C3360.8 1164.67 3343.47 1150 3332.13 1130C3320.8 1110 3313.13 1084 3309.13 1052C3307.13 1036.33 3305.63 1019.33 3304.63 1001C3303.97 982.667 3303.63 962.833 3303.63 941.5C3303.63 895.167 3304.97 852.167 3307.63 812.5C3310.3 772.833 3315.8 737.333 3324.13 706C3337.13 658.333 3358.97 621.167 3389.63 594.5C3420.3 567.5 3465.3 554 3524.63 554C3575.3 554 3623.8 560.667 3670.13 574C3716.8 587.333 3759.63 605.5 3798.63 628.5C3837.97 651.167 3872.13 677 3901.13 706C3930.13 735 3952.63 765.5 3968.63 797.5C3984.63 829.5 3992.63 861.167 3992.63 892.5C3992.63 925.833 3983.47 957.5 3965.13 987.5C3946.8 1017.17 3921.3 1044.33 3888.63 1069C3855.97 1093.67 3817.97 1115 3774.63 1133C3731.63 1150.67 3684.97 1164.33 3634.63 1174C3584.63 1183.67 3532.97 1188.5 3479.63 1188.5ZM3607.63 922.5C3618.97 922.5 3629.3 921.333 3638.63 919C3648.3 916.333 3656.8 913 3664.13 909C3671.47 905 3677.63 900.5 3682.63 895.5C3687.97 890.5 3691.97 885.667 3694.63 881C3697.3 876 3698.63 871.5 3698.63 867.5C3698.63 862.833 3697.3 857.833 3694.63 852.5C3692.3 847.167 3688.63 842 3683.63 837C3678.63 832 3672.63 827.5 3665.63 823.5C3658.63 819.5 3650.8 816.333 3642.13 814C3633.47 811.333 3623.97 810 3613.63 810C3606.3 810 3600.3 811.667 3595.63 815C3591.3 818 3587.8 823 3585.13 830C3583.8 834 3582.8 838.667 3582.13 844C3581.47 849 3581.13 854.833 3581.13 861.5C3581.13 868.5 3581.3 875 3581.63 881C3582.3 887 3583.13 892.333 3584.13 897C3587.8 914 3595.63 922.5 3607.63 922.5Z" fill="white"/>
</svg>
