<svg width="1893" height="1827" viewBox="0 0 1893 1827" fill="none" xmlns="http://www.w3.org/2000/svg">
<rect width="1893" height="1827" fill="#1E1E1E"/>
<rect width="1893" height="1827" rx="374" fill="#D5BAFF"/>
<path d="M785.172 1237C748.839 1237 717.672 1230 691.672 1216C666.005 1202 646.172 1182.33 632.172 1157C627.172 1147.67 622.839 1136.83 619.172 1124.5C615.505 1112.17 612.505 1098.83 610.172 1084.5C607.839 1069.83 606.005 1055 604.672 1040C603.339 1024.67 602.339 1009.5 601.672 994.5C601.339 979.5 601.172 965.333 601.172 952C601.172 894.667 607.172 845.667 619.172 805C631.172 764.333 648.172 730.667 670.172 704C692.172 677.333 718.339 656.5 748.672 641.5C779.339 626.167 813.172 615.333 850.172 609C887.505 602.667 927.005 599.5 968.672 599.5C1004.67 599.5 1040.01 604 1074.67 613C1109.67 622 1141.34 635.333 1169.67 653C1198.34 670.333 1221.17 691.5 1238.17 716.5C1255.17 741.5 1263.67 770 1263.67 802C1263.67 825 1261.01 844 1255.67 859C1250.34 873.667 1243.01 885.667 1233.67 895C1224.67 904 1214.51 911.167 1203.17 916.5C1191.84 921.5 1180.01 925.833 1167.67 929.5C1160.67 931.5 1154.34 934.333 1148.67 938C1143.34 941.667 1140.67 946.333 1140.67 952C1140.67 956 1145.34 962.333 1154.67 971C1164.34 979.667 1176.01 989.667 1189.67 1001C1203.34 1012.33 1216.84 1024 1230.17 1036C1243.51 1047.67 1254.01 1058.5 1261.67 1068.5C1265.01 1072.83 1268.01 1077.17 1270.67 1081.5C1273.34 1085.83 1275.67 1090.17 1277.67 1094.5C1279.67 1098.83 1281.34 1103.17 1282.67 1107.5C1284.01 1111.5 1285.01 1115.67 1285.67 1120C1286.34 1124.33 1286.67 1128.5 1286.67 1132.5C1286.67 1153.5 1279.84 1171.33 1266.17 1186C1252.51 1200.33 1234.84 1211.17 1213.17 1218.5C1191.84 1225.83 1169.34 1229.5 1145.67 1229.5C1127.01 1229.5 1109.67 1227.33 1093.67 1223C1078.01 1219 1063.67 1213 1050.67 1205C1037.67 1196.67 1025.84 1186.33 1015.17 1174C1004.51 1161.33 994.839 1146.67 986.172 1130C978.172 1114.33 970.005 1100 961.672 1087C953.339 1073.67 945.672 1063 938.672 1055C931.672 1046.67 926.339 1042.5 922.672 1042.5C921.005 1042.5 919.672 1043.17 918.672 1044.5C917.672 1045.83 917.005 1047.83 916.672 1050.5C916.339 1053.17 916.005 1056.33 915.672 1060C915.672 1063.33 915.672 1067.17 915.672 1071.5C915.672 1076.17 915.672 1081.67 915.672 1088C915.672 1094 915.505 1100.33 915.172 1107C915.172 1113.67 914.839 1120.33 914.172 1127C913.839 1133.67 913.339 1140.17 912.672 1146.5C912.005 1152.83 911.005 1158.5 909.672 1163.5C903.005 1192.17 887.672 1211.5 863.672 1221.5C840.005 1231.83 813.839 1237 785.172 1237ZM951.672 857.5C957.005 857.5 962.172 856.833 967.172 855.5C972.505 853.833 977.339 851.5 981.672 848.5C986.339 845.167 990.339 841.333 993.672 837C997.005 832.333 999.505 826.833 1001.17 820.5C1003.17 814.167 1004.17 807.167 1004.17 799.5C1004.17 792.5 1002.67 786.167 999.672 780.5C997.005 774.833 993.172 770.167 988.172 766.5C983.172 762.5 977.505 759.5 971.172 757.5C964.839 755.5 958.172 754.5 951.172 754.5C942.505 754.5 935.505 755.667 930.172 758C924.839 760.333 920.505 763.5 917.172 767.5C913.839 771.167 911.005 775.333 908.672 780C906.672 784 904.839 788.333 903.172 793C901.839 797.667 900.839 802.833 900.172 808.5C899.505 814.167 899.172 821 899.172 829C899.172 835 901.672 840.167 906.672 844.5C911.672 848.833 918.172 852.167 926.172 854.5C934.505 856.5 943.005 857.5 951.672 857.5Z" fill="white"/>
</svg>
